<svg width="14" height="14" viewBox="0 0 14 14" fill="none" xmlns="http://www.w3.org/2000/svg">
<path fill-rule="evenodd" clip-rule="evenodd" d="M5.75 10.8335V2.96886L12.25 1.88553V9.25018H10.3333C9.23516 9.25018 8.25 9.86591 8.25 10.8335C8.25 11.8011 9.23516 12.4169 10.3333 12.4169H11.6667C12.7648 12.4169 13.75 11.8011 13.75 10.8335V10.0002V1.00019C13.75 0.536731 13.3338 0.184199 12.8767 0.26039L4.8767 1.59372C4.51506 1.654 4.25 1.96689 4.25 2.33352V10.0835H2.33333C1.23516 10.0835 0.25 10.6993 0.25 11.6669C0.25 12.6345 1.23516 13.2502 2.33333 13.2502H3.66667C4.76484 13.2502 5.75 12.6345 5.75 11.6669V11.3335V10.8335Z" fill="#161823"/>
</svg>
